<svg width="34" height="34" viewBox="0 0 34 34" fill="none" xmlns="http://www.w3.org/2000/svg">
    <path d="M17.2891 33.2285C26.4018 33.2285 33.7891 25.8412 33.7891 16.7285C33.7891 7.61582 26.4018 0.228516 17.2891 0.228516C8.17636 0.228516 0.789062 7.61582 0.789062 16.7285C0.789062 25.8412 8.17636 33.2285 17.2891 33.2285Z" fill="#F0F0F0"/>
    <path d="M16.5717 16.7284H33.789C33.789 15.2392 33.5905 13.7965 33.2206 12.4241H16.5717V16.7284Z" fill="#D80027"/>
    <path d="M16.5717 8.1198H31.3673C30.3572 6.47161 29.0658 5.01477 27.56 3.81543H16.5717V8.1198Z" fill="#D80027"/>
    <path d="M17.2891 33.2286C21.1723 33.2286 24.7415 31.8864 27.5601 29.6416H7.01807C9.8366 31.8864 13.4058 33.2286 17.2891 33.2286Z" fill="#D80027"/>
    <path d="M3.21077 25.3371H31.3673C32.1781 24.0139 32.807 22.5676 33.2206 21.0327H1.35742C1.77102 22.5676 2.39989 24.0139 3.21077 25.3371Z" fill="#D80027"/>
    <path d="M8.43217 2.80522H9.9358L8.53717 3.82133L9.07142 5.46546L7.67285 4.44936L6.27428 5.46546L6.73577 4.04511C5.50432 5.07088 4.42499 6.27267 3.53554 7.61175H4.01733L3.12704 8.25854C2.98833 8.48992 2.8553 8.72498 2.72781 8.96352L3.15295 10.272L2.35979 9.69571C2.16262 10.1134 1.98228 10.5406 1.82018 10.9766L2.28856 12.4183H4.01733L2.61869 13.4344L3.15295 15.0785L1.75438 14.0624L0.916615 14.6711C0.832762 15.3452 0.789062 16.0317 0.789062 16.7285H17.2891C17.2891 7.61587 17.2891 6.54157 17.2891 0.228516C14.0295 0.228516 10.991 1.17404 8.43217 2.80522ZM9.07142 15.0785L7.67285 14.0624L6.27428 15.0785L6.80853 13.4344L5.4099 12.4183H7.13866L7.67285 10.7741L8.20704 12.4183H9.9358L8.53717 13.4344L9.07142 15.0785ZM8.53717 8.62785L9.07142 10.272L7.67285 9.25589L6.27428 10.272L6.80853 8.62785L5.4099 7.61175H7.13866L7.67285 5.96762L8.20704 7.61175H9.9358L8.53717 8.62785ZM14.9899 15.0785L13.5913 14.0624L12.1928 15.0785L12.727 13.4344L11.3284 12.4183H13.0571L13.5913 10.7741L14.1255 12.4183H15.8543L14.4556 13.4344L14.9899 15.0785ZM14.4556 8.62785L14.9899 10.272L13.5913 9.25589L12.1928 10.272L12.727 8.62785L11.3284 7.61175H13.0571L13.5913 5.96762L14.1255 7.61175H15.8543L14.4556 8.62785ZM14.4556 3.82133L14.9899 5.46546L13.5913 4.44936L12.1928 5.46546L12.727 3.82133L11.3284 2.80522H13.0571L13.5913 1.16109L14.1255 2.80522H15.8543L14.4556 3.82133Z" fill="#0052B4"/>
</svg>
