<svg width="188" height="76" viewBox="0 0 188 76" fill="none" xmlns="http://www.w3.org/2000/svg">
    <g clip-path="url(#clip0_464_8371)">
        <path d="M51.5547 49.0624L63.4296 38.4956H187.489L51.5547 49.0624Z" fill="#991B1F"/>
        <path d="M16.8379 26.8725V36.6955H20.4248V53.9419L20.2395 53.7785C17.0186 50.9432 13.6874 48.0107 10.4383 45.1044C10.4008 45.0428 10.3469 44.8864 10.3469 44.7727C10.307 42.4064 10.307 39.9951 10.307 37.6619V36.7286C10.307 31.9534 10.307 27.1781 10.3117 22.4028V11.5186C10.314 11.341 10.3844 11.1728 10.5087 11.0473C10.633 10.9217 10.7996 10.853 10.9732 10.853H20.5444V21.479H30.2329V0.975586H2.38726C1.35976 0.975586 0.524626 1.81884 0.522281 2.85633V11.8645C0.524626 23.7293 0.524626 35.9944 0.505859 48.0605C0.505859 49.3514 1.12987 50.0691 1.67411 50.55C7.24794 55.465 12.8171 60.3848 18.3839 65.3069L25.4028 71.5082C26.0338 72.0672 26.6719 72.6167 27.3475 73.1994C27.6642 73.4742 27.9903 73.7537 28.3281 74.0474L30.2611 75.7221V26.8725H16.8356H16.8379Z" fill="#991B1F"/>
        <path d="M60.7407 50.917C52.76 57.9947 41.4575 68.2251 33.4604 75.2814C33.3384 75.388 33.2047 75.4804 32.9678 75.6651V38.4956H40.3902L40.4113 59.1625C40.9766 58.684 41.4177 58.3216 41.8446 57.9449C42.9589 56.9619 47.8993 52.7812 49.0136 51.7958L60.7407 50.9147V50.917Z" fill="white"/>
        <path d="M57.8957 33.749L55.1416 26.29H42.3893L39.7666 33.749H32.9683L45.3663 0.987549H52.1647L64.8723 33.749H57.8957ZM48.6974 8.62896L44.388 20.7993H53.0514L48.6974 8.62896Z" fill="white"/>
        <path d="M68.2926 0.987549H81.8002C84.5543 0.987549 86.6281 1.15573 88.0215 1.49208C90.2431 2.1032 91.8711 3.27571 92.9103 5.01433C93.8581 6.53977 94.332 8.26181 94.332 10.1852C94.332 15.4319 91.5333 18.4662 85.9337 19.2905C86.7031 19.7784 87.4304 20.3137 88.1107 20.8917C88.791 21.472 89.429 22.1116 90.0202 22.8127C90.3463 23.2391 90.7545 23.8265 91.2424 24.575C91.7304 25.3235 92.3168 26.2449 92.9971 27.344L96.9077 33.749H89.2203L84.5543 26.6121C83.8716 25.5438 83.3391 24.7219 82.9544 24.1415C82.5697 23.5636 82.3468 23.2414 82.2882 23.1799C81.1621 21.6544 80.1558 20.7401 79.2667 20.4345C78.5559 20.1906 77.4744 20.0674 76.0223 20.0674H74.7344V33.749H68.2926V0.987549ZM79.4895 14.8515C80.6742 14.8515 81.6008 14.8444 82.2671 14.8278C82.9333 14.8136 83.3555 14.7899 83.5338 14.7591C85.251 14.5768 86.4216 14.013 87.0433 13.0655C87.489 12.426 87.7095 11.6017 87.7095 10.595C87.7095 8.33761 86.614 7.02535 84.4206 6.66057C83.9772 6.5682 82.4219 6.52319 79.7546 6.52319H74.7344V14.8515H79.4895Z" fill="white"/>
        <path d="M122.058 33.749L119.304 26.29H106.552L103.929 33.749H97.1306L109.526 0.987549H116.325L129.032 33.749H122.056H122.058ZM112.86 8.62896L108.55 20.7993H117.214L112.86 8.62896Z" fill="white"/>
        <path d="M132.497 0.987549H138.763L151.783 22.8577V0.987549H157.737V33.749H151.295L138.453 12.381V33.749H132.5V0.987549H132.497Z" fill="white"/>
        <path d="M171.688 6.52319H162.224V0.987549H187.506V6.52319H178.087V33.749H171.688V6.52319Z" fill="white"/>
        <path d="M55.348 58.6226H58.705V72.7589H67.0962V75.6629H55.348V58.6226Z" fill="white"/>
        <path d="M71.1265 60.4227C72.5246 58.9352 74.4435 58.1914 76.8833 58.1914C79.4473 58.1914 81.4507 59.0228 82.8958 60.688C84.2939 62.2727 84.993 64.4092 84.993 67.0953C84.993 69.7814 84.301 71.8801 82.9192 73.479C81.4742 75.1276 79.4778 75.9519 76.9302 75.9519C74.3826 75.9519 72.3463 75.1442 70.9177 73.5287C69.5031 71.9441 68.797 69.8241 68.797 67.1688C68.797 64.3216 69.5735 62.0737 71.1265 60.4251V60.4227ZM73.341 71.1766C74.1644 72.3917 75.3538 73.0005 76.9067 73.0005C78.4597 73.0005 79.6491 72.3846 80.4725 71.1529C81.1551 70.113 81.4976 68.7368 81.4976 67.0243C81.4976 65.3117 81.1551 63.9118 80.4725 62.9193C79.7101 61.7516 78.523 61.1665 76.9067 61.1665C75.2904 61.1665 74.094 61.7587 73.3175 62.943C72.6185 63.9829 72.2689 65.3591 72.2689 67.0716C72.2689 68.7842 72.6255 70.1036 73.341 71.1766Z" fill="white"/>
        <path d="M95.39 66.4487H102.639V73.2895C101.862 74.0901 100.75 74.7462 99.3053 75.2578C97.9845 75.7221 96.7177 75.9542 95.5049 75.9542C93.8112 75.9542 92.3427 75.6108 91.0993 74.9215C89.7317 74.1848 88.7065 73.0739 88.0239 71.5864C87.3717 70.1936 87.0457 68.6752 87.0457 67.0266C87.0457 65.2335 87.3882 63.682 88.0708 62.3698C88.4438 61.6497 88.8989 61.0102 89.4338 60.4488C89.9686 59.8898 90.602 59.4255 91.3339 59.056C92.406 58.4804 93.7338 58.1914 95.3196 58.1914C99.3287 58.1914 101.698 59.8708 102.428 63.232L99.0707 63.881C98.5569 62.0737 97.3066 61.1689 95.3173 61.1689C93.6845 61.1689 92.4576 61.7137 91.6342 62.8009C90.8882 63.81 90.5152 65.1696 90.5152 66.8798C90.5152 68.59 90.8718 70.087 91.5873 71.1292C92.3943 72.3775 93.6306 73.0005 95.2938 73.0005C96.6919 73.0005 98.0056 72.5125 99.2325 71.5366V69.3527H95.3876V66.4487H95.39Z" fill="white"/>
        <path d="M105.646 58.4805H109.027V75.6654H105.646V58.4805Z" fill="white"/>
        <path d="M114.666 69.7365C115.039 71.9441 116.252 73.0479 118.302 73.0479C118.736 73.0479 119.13 73.0029 119.48 72.9153C119.829 72.8277 120.16 72.695 120.47 72.5197C121.216 72.0886 121.589 71.4728 121.589 70.6721C121.589 69.8715 121.068 69.2651 120.026 68.8956C119.839 68.8151 119.522 68.7156 119.072 68.5948C118.621 68.474 118.037 68.3271 117.324 68.1518C115.49 67.671 114.225 67.1049 113.524 66.4488C112.499 65.4894 111.985 64.3359 111.985 62.9928C111.985 62.0335 112.24 61.1926 112.754 60.4725C113.268 59.7359 113.951 59.1769 114.805 58.7931C115.675 58.3928 116.763 58.1938 118.068 58.1938C119.902 58.1938 121.368 58.5776 122.473 59.345C123.747 60.257 124.416 61.6095 124.477 63.4002L121.096 63.5447C120.955 62.6328 120.629 61.9838 120.118 61.6C119.668 61.2495 118.976 61.0718 118.044 61.0718C117.05 61.0718 116.28 61.2708 115.736 61.6711C115.379 61.9601 115.201 62.3201 115.201 62.7512C115.201 63.1349 115.372 63.4784 115.715 63.784C116.118 64.1535 117.153 64.5514 118.814 64.9849C120.726 65.4965 121.936 65.8897 122.45 66.1621C124.113 67.0907 124.943 68.5948 124.943 70.6745C124.943 71.6978 124.671 72.6334 124.127 73.4814C123.569 74.3294 122.823 74.9453 121.889 75.329C120.925 75.7601 119.722 75.978 118.276 75.978C114.113 75.978 111.811 74.0096 111.377 70.0729L114.664 69.7365H114.666Z" fill="white"/>
        <path d="M131.54 61.3845H126.576V58.4805H139.837V61.3845H134.897V75.6654H131.54V61.3845Z" fill="white"/>
        <path d="M141.911 58.4805H145.292V75.6654H141.911V58.4805Z" fill="white"/>
        <path d="M162.447 70.4092C161.436 74.1044 159.13 75.9543 155.524 75.9543C153.101 75.9543 151.203 75.0992 149.838 73.3867C148.548 71.7878 147.903 69.7294 147.903 67.2186C147.903 64.7078 148.548 62.4575 149.838 60.8089C151.253 59.0655 153.209 58.1938 155.712 58.1938C157.748 58.1938 159.409 58.8168 160.699 60.0651C161.459 60.8018 162.027 61.8487 162.4 63.2084L159.067 64.0493C158.881 63.1539 158.468 62.4504 157.83 61.9364C157.225 61.4247 156.463 61.1689 155.545 61.1689C152.763 61.1689 151.374 63.1065 151.374 66.977C151.374 70.8474 152.742 73.0006 155.477 73.0006C157.403 73.0006 158.64 71.7854 159.184 69.3528L162.447 70.4092Z" fill="white"/>
        <path d="M167.761 69.7365C168.134 71.9441 169.346 73.0479 171.397 73.0479C171.831 73.0479 172.225 73.0029 172.574 72.9153C172.924 72.8277 173.255 72.695 173.564 72.5197C174.31 72.0886 174.683 71.4728 174.683 70.6721C174.683 69.8715 174.162 69.2651 173.121 68.8956C172.933 68.8151 172.617 68.7156 172.166 68.5948C171.716 68.474 171.132 68.3271 170.418 68.1518C168.584 67.671 167.32 67.1049 166.618 66.4488C165.593 65.4894 165.079 64.3359 165.079 62.9928C165.079 62.0335 165.335 61.1926 165.849 60.4725C166.362 59.7359 167.045 59.1769 167.899 58.7931C168.769 58.3928 169.858 58.1938 171.162 58.1938C172.997 58.1938 174.463 58.5776 175.568 59.345C176.841 60.257 177.51 61.6095 177.571 63.4002L174.191 63.5447C174.05 62.6328 173.724 61.9838 173.212 61.6C172.762 61.2495 172.07 61.0718 171.139 61.0718C170.144 61.0718 169.375 61.2708 168.83 61.6711C168.474 61.9601 168.295 62.3201 168.295 62.7512C168.295 63.1349 168.467 63.4784 168.809 63.784C169.213 64.1535 170.247 64.5514 171.908 64.9849C173.82 65.4965 175.03 65.8897 175.544 66.1621C177.207 67.0907 178.038 68.5948 178.038 70.6745C178.038 71.6978 177.766 72.6334 177.222 73.4814C176.663 74.3294 175.917 74.9453 174.984 75.329C174.019 75.7601 172.816 75.978 171.371 75.978C167.207 75.978 164.906 74.0096 164.472 70.0729L167.758 69.7365H167.761Z" fill="white"/>
    </g>
    <defs>
        <clipPath id="clip0_464_8371">
            <rect width="187" height="75" fill="white" transform="translate(0.505859 0.975586)"/>
        </clipPath>
    </defs>
</svg>
