<svg width="30" height="106" viewBox="0 0 30 106" fill="none" xmlns="http://www.w3.org/2000/svg">
    <path d="M16.4078 36.9455V50.8229H19.8795V75.1878L19.7002 74.9569C16.5826 70.9513 13.3583 66.8085 10.2135 62.7025C10.1772 62.6155 10.125 62.3946 10.125 62.234C10.0864 58.891 10.0864 55.4844 10.0864 52.1882V50.8697C10.0864 44.1234 10.0864 37.3772 10.0909 30.6309V15.2543C10.0932 15.0033 10.1613 14.7657 10.2816 14.5884C10.402 14.411 10.5632 14.314 10.7312 14.314H19.9953V29.3258H29.373V0.359619H2.42077C1.42624 0.359619 0.617896 1.55093 0.615626 3.01664V15.7429C0.617896 32.5048 0.617896 49.8323 0.599731 66.8787C0.599731 68.7025 1.20372 69.7165 1.7305 70.3958C7.12549 77.3395 12.5159 84.2899 17.9041 91.2436L24.6978 100.004C25.3086 100.794 25.9262 101.571 26.5801 102.394C26.8867 102.782 27.2023 103.177 27.5293 103.592L29.4002 105.958V36.9455H16.4055H16.4078Z" fill="white"/>
</svg>
